<svg xmlns="http://www.w3.org/2000/svg" xmlns:xlink="http://www.w3.org/1999/xlink" viewBox="0 0 580.43 533.28"><defs><style>.cls-1,.cls-7{fill:none;}.cls-2{fill:#2ad575;}.cls-2,.cls-7{stroke:#262262;}.cls-2,.cls-4,.cls-5,.cls-6,.cls-7{stroke-miterlimit:10;}.cls-3{clip-path:url(#clip-path);}.cls-4{fill:#c59b6c;}.cls-4,.cls-5,.cls-6{stroke:#000;}.cls-6{fill:#ff4d4e;}.cls-8{fill:#ef7d00;}</style><clipPath id="clip-path"><rect class="cls-1" x="91.6" y="148.94" width="397.23" height="235.4" rx="12"/></clipPath></defs><g id="Zambia"><rect class="cls-2" x="91.6" y="148.94" width="397.23" height="235.4" rx="12"/><g class="cls-3"><rect class="cls-4" x="380" y="241.25" width="108.83" height="286.18" rx="12"/><rect class="cls-5" x="321.34" y="241.25" width="100.98" height="286.18" rx="12"/><rect class="cls-6" x="261.05" y="241.25" width="85.35" height="286.18" rx="12"/></g><rect class="cls-7" x="91.6" y="148.94" width="397.23" height="235.4" rx="12"/><path class="cls-8" d="M414.46,180s18.2-7.13,20-8.6c.8.88-7.3,9.85-23,13.16,14.27-3.08,26.46-12.79,28.94-12.5.73.15.57,9.49-32.15,17.58,22.61-5.44,35.76-15.45,35.6-14.34.16.22-2.24,7.87-22.05,13.82,5.53-1.17,20.53-9.56,20.37-7.94.48.66-14.51,18.31-41.62,12.58,21.65,5.15,35.68-7.28,37.69-7.06.4.07-4,10.88-31.27,11.54,13.07-1.25,9.3-.07,9.3-.07a18.77,18.77,0,0,1-17,1.76c7.3,1.84,8.1,1.92,8.26,2.51-.48.73-6.5,1.83-12.27-1,4.65,1.76,8.82,2.05,8.9,2.72a6.51,6.51,0,0,1-5.69.66c-2.65-1.1-27-14.86-27-14.86l41.53-10.44Z"/><path d="M400.48,205.45a5.6,5.6,0,0,1-2.15-.41c-2.63-1.1-26.05-14.31-27.05-14.87a.25.25,0,0,1-.12-.24.23.23,0,0,1,.18-.2l41.53-10.44H413l1.44.49c1.32-.52,18.16-7.15,19.82-8.53a.25.25,0,0,1,.33,0,.53.53,0,0,1,.1.48c-.2,1-2.23,3.33-5.85,5.83,1.85-1,3.53-1.92,5-2.76,3.35-1.88,5.51-3.08,6.49-3,.13,0,.32.12.37.5.15,1.2-1,3.92-5.69,7.16,2.47-1.26,4.44-2.35,5.84-3.13a10.76,10.76,0,0,1,2.82-1.38.31.31,0,0,1,.25.1.26.26,0,0,1,.07.19.83.83,0,0,1,0,.22s-.67,2.85-5.8,6.47a12.84,12.84,0,0,1,3.6-1.22.55.55,0,0,1,.43.15.45.45,0,0,1,.1.25.46.46,0,0,1,0,.2c-.16.65-2.11,3-5.63,5.62a3.37,3.37,0,0,1,1.5-.5.27.27,0,0,1,.23.31c0,1.07-4.27,8.45-21.54,10.92a.34.34,0,0,1,0,.14c0,.14,0,.36-.63.56a19.91,19.91,0,0,1-10.06,3.09c1.08.31,1.33.51,1.44.89a.24.24,0,0,1,0,.2c-.33.5-2.08.89-4.08.94.48.16.72.34.75.59a.41.41,0,0,1,0,.11C404.21,204.58,402.38,205.45,400.48,205.45ZM372,190.05c3.55,2,24.09,13.55,26.48,14.55a5.08,5.08,0,0,0,2,.37,7,7,0,0,0,3.3-.85,13.74,13.74,0,0,0-2.37-.66l-.13,0a17.94,17.94,0,0,1-6.17-1.78.24.24,0,0,1-.12-.31.25.25,0,0,1,.31-.13,44.78,44.78,0,0,0,6.06,1.75,17.54,17.54,0,0,0,1.9.1,8.87,8.87,0,0,0,3.93-.65c-.2-.22-.89-.43-3.14-1a18.59,18.59,0,0,1-4.92-1.23.26.26,0,0,1-.14-.3.25.25,0,0,1,.29-.16c1.36.35,2.49.63,3.44.86l1.41.35a17.29,17.29,0,0,0,1.76.09,19.22,19.22,0,0,0,10.19-3l.07,0h0c-.19,0-.46,0-.87,0h0c-2.6.31-5.41.5-8.34.57a.23.23,0,0,1-.24-.22.24.24,0,0,1,.22-.25c3.93-.38,6.74-.57,8.33-.58,9.87-1.18,15.49-3.9,18.46-6s4-3.85,4.22-4.49a17.17,17.17,0,0,0-2.58,1.28c-1.38.75-3.09,1.69-5.21,2.66a42.82,42.82,0,0,1-8.38,3A43.85,43.85,0,0,1,411,195.28,45.75,45.75,0,0,1,400.45,194a.24.24,0,0,1-.18-.28.25.25,0,0,1,.28-.19,51,51,0,0,0,10.57,1.14h0a44.56,44.56,0,0,0,10.5-1.23,48.54,48.54,0,0,0,8.3-3c7.86-3.76,11.79-8.62,12-9.24v0h-.05c-.83,0-3.73,1.31-6.4,2.53a59.21,59.21,0,0,1-10.16,4.5,25,25,0,0,1-3.47,1.12.24.24,0,0,1-.28-.18.23.23,0,0,1,.16-.28c1.18-.36,2.34-.73,3.44-1.11,2.53-1,5.69-2.44,8.47-3.73l1.62-.74c6.59-3.8,8.05-7,8.31-7.81-.42.17-1.35.69-2.39,1.27-2.3,1.28-6.17,3.43-11.28,5.72A97.68,97.68,0,0,1,413,188.66c-1.56.44-3.16.86-4.73,1.24a.24.24,0,0,1-.12-.46h0c1.61-.4,3.2-.82,4.71-1.24a122.28,122.28,0,0,0,16.8-6.11c8.78-4.34,10.29-8,10.55-9a1.5,1.5,0,0,0,0-.78h0c-.92,0-3.22,1.29-6.12,2.91-3.07,1.72-6.88,3.86-11.27,5.79a51.35,51.35,0,0,1-11.39,3.81.24.24,0,0,1-.28-.19.24.24,0,0,1,.18-.28,58.77,58.77,0,0,0,11.3-3.78c7.17-3.4,11-7.44,11.52-8.7-3.15,1.91-18.93,8.1-19.64,8.38a.22.22,0,0,1-.16,0l-1.46-.49Z"/><path class="cls-8" d="M365.63,217.24c-3.66,0-3.76,3-3.76,3s-.3.21-.1,1.66a8,8,0,0,1,.91-1.29c.4.06,2.08.52,4.72-1.39-2.41,2.31-1,3.17-1,3.17a1.64,1.64,0,0,0,1.27,2.18,1.31,1.31,0,0,1-.23-1.38,2.76,2.76,0,0,0,2.41-3.14c.1,2.61,1.64,3.26,1.64,3.26a1.64,1.64,0,0,0,1.68,1.57,2.11,2.11,0,0,1-.7-1.88s2.17-1.44.33-3.9a6.49,6.49,0,0,0,2-2.21,14.2,14.2,0,0,1-2.21-1.08c-.34-.65,0-4.18,0-4.18l-.91-4.58-2.58,7.13A3.43,3.43,0,0,1,365.63,217.24Z"/><path d="M373.2,225.1h0a1.86,1.86,0,0,1-1.88-1.65,3.23,3.23,0,0,1-1.39-1.86,3,3,0,0,1-2.27,1.8,1.19,1.19,0,0,0,.23,1,.21.21,0,0,1,.08.17.24.24,0,0,1-.24.24h0a1.86,1.86,0,0,1-1.31-.83,2.21,2.21,0,0,1-.19-1.49,1.32,1.32,0,0,1-.39-.79,2.31,2.31,0,0,1,.46-1.46,5.93,5.93,0,0,1-2.67.71,4.27,4.27,0,0,1-.79-.08A10.68,10.68,0,0,0,362,222a.25.25,0,0,1-.26.11.23.23,0,0,1-.18-.2,2.83,2.83,0,0,1,.1-1.79c.06-.51.51-3.12,4-3.12a3.19,3.19,0,0,0,3.25-2.78.22.22,0,0,1,0-.08.5.5,0,0,1,.11-.32l2.49-6.87a.23.23,0,0,1,.24-.16.26.26,0,0,1,.22.19l.9,4.58s0,.05,0,.07a17.58,17.58,0,0,0,0,4,13.58,13.58,0,0,0,2.11,1,.29.29,0,0,1,.14.15.25.25,0,0,1,0,.19,7.1,7.1,0,0,1-1.88,2.17,3,3,0,0,1,.6,2.26,2.87,2.87,0,0,1-1,1.7,1.83,1.83,0,0,0,.61,1.54.25.25,0,0,1-.13.45Zm-3.32-5.31a.24.24,0,0,1,.24.23.41.41,0,0,0,0,.11c.12,2.32,1.43,2.92,1.49,2.94a.25.25,0,0,1,.14.22,1.35,1.35,0,0,0,.79,1.17,2.42,2.42,0,0,1-.29-1.52.27.27,0,0,1,.1-.16,2.38,2.38,0,0,0,.95-1.45,2.79,2.79,0,0,0-.67-2.11.24.24,0,0,1,.08-.35,5.62,5.62,0,0,0,1.77-1.89,12.31,12.31,0,0,1-2-1l-.07-.09c-.34-.66-.12-3.6-.06-4.28l-.74-3.7-2.25,6.22a3.68,3.68,0,0,1-3.74,3.33c-3.37,0-3.51,2.64-3.52,2.75a.24.24,0,0,1-.07.17s-.12.2-.09.78a5.05,5.05,0,0,1,.56-.75.22.22,0,0,1,.2-.07l.1,0a4.87,4.87,0,0,0,.75.07,6.48,6.48,0,0,0,3.7-1.43.25.25,0,0,1,.33,0,.23.23,0,0,1,0,.32c-1.17,1.12-1.36,1.83-1.32,2.24a.7.7,0,0,0,.31.55.26.26,0,0,1,.1.28,1.77,1.77,0,0,0,.11,1.27,1.19,1.19,0,0,0,.44.42,1.48,1.48,0,0,1,.05-1.07.26.26,0,0,1,.19-.13,2.5,2.5,0,0,0,2.2-2.78V220a.25.25,0,0,1,.23-.25Z"/><path class="cls-8" d="M383.67,207c.08.07,2.72,2.8,5.29,2.65,1-.74-2-2.35-2-2.72,1,.88,5.45,4.34,8.26,3.09,1.12-1.47-2-1.25-5.45-5.23,2.4,1.48,8.42,4.71,11.22,3.46,1.21-1.18-6.25-4.85-8.74-7.72l-6.41-3L377.09,204Z"/><path d="M393.85,210.47a9.57,9.57,0,0,1-4.57-1.62.89.89,0,0,1,.11.4.66.66,0,0,1-.29.54.29.29,0,0,1-.13.05h-.22c-2.3,0-4.57-2.05-5.22-2.69L377,204.23a.27.27,0,0,1-.14-.19.23.23,0,0,1,.1-.22l8.74-6.55a.23.23,0,0,1,.24,0l6.42,3,.07.06a29.29,29.29,0,0,0,4.83,3.84c2.5,1.74,4,2.85,4.1,3.68a.63.63,0,0,1-.2.53.18.18,0,0,1-.07,0,4,4,0,0,1-1.62.3c-2.62,0-6.18-1.72-8.34-2.91a16.61,16.61,0,0,0,3.13,2.24c.8.46,1.33.77,1.42,1.24a1,1,0,0,1-.27.82.2.2,0,0,1-.09.07A3.43,3.43,0,0,1,393.85,210.47Zm-6.9-3.83a.25.25,0,0,1,.16.06c.65.55,4,3.3,6.74,3.3a3.11,3.11,0,0,0,1.21-.23.56.56,0,0,0,.14-.39c-.05-.26-.55-.55-1.18-.92a15.86,15.86,0,0,1-4.44-3.56.24.24,0,0,1,.3-.36c1,.62,6.23,3.7,9.58,3.7a3.55,3.55,0,0,0,1.38-.24.16.16,0,0,0,0-.12c-.06-.65-2-2-3.9-3.33a29.08,29.08,0,0,1-4.88-3.88l-6.24-2.93-8.3,6.22,6.2,2.77a.18.18,0,0,1,.07.05l0,0c.43.43,2.71,2.57,4.89,2.57h.11a.15.15,0,0,0,.05-.11c0-.38-.86-1.07-1.38-1.49s-.82-.65-.82-.88a.26.26,0,0,1,.14-.22Z"/><path class="cls-8" d="M373.8,184.59s3-1.61,14.84-.8c1.28.14,8.09-2.14,10.26-2.8,3.45-.59,14.43-2.79,17.4-4.85,2.08-.22-.56,3.53-3.21,4.41-2.8,1.18-13,4.41-16.6,4,4.33.07,1.93,3.31-5.29,1.77,3.45,1.76,2.17,2.05,2.17,2.05s-6.1.3-7.7-1c4.09,1.4,2.41,1.91,2.41,1.91s-4.17.37-6.1-.44c3,.81,1.44,1.32,1.44,1.32a11,11,0,0,1-4.41-.29C377,189.23,374,184.59,373.8,184.59Z"/><path d="M381.83,190.52a9.3,9.3,0,0,1-2.89-.4c-1.58-.53-3.71-3.32-4.74-4.67-.22-.28-.44-.57-.52-.65a.25.25,0,0,1-.11-.15.23.23,0,0,1,.12-.26c.08,0,2-1.07,8.85-1.07,1.84,0,3.9.08,6.11.23h.12c1.25,0,5.82-1.45,8.55-2.31l1.51-.48h0c3.57-.61,14.4-2.8,17.3-4.82a.25.25,0,0,1,.11,0c.81-.09,1,.38,1,.57.18,1.1-2,3.6-4.11,4.31-2.52,1.05-10.2,3.51-14.66,3.95a.77.77,0,0,1,.38.68c-.05.76-1.46,1.53-4.07,1.53a16.52,16.52,0,0,1-2.26-.17c1.17.72,1.31,1.11,1.28,1.38a.54.54,0,0,1-.42.43h0s-.64,0-1.54,0a28.51,28.51,0,0,1-3.45-.18.74.74,0,0,1,.27.56c0,.38-.47.52-.52.54h0s-1,.08-2.17.08a19.5,19.5,0,0,1-2-.09.47.47,0,0,1,.09.29c0,.39-.49.57-.55.59h0A13.19,13.19,0,0,1,381.83,190.52Zm-7.62-5.83.37.48c1,1.3,3.07,4,4.51,4.49a8.62,8.62,0,0,0,2.74.39,11.22,11.22,0,0,0,1.54-.1.54.54,0,0,0,.21-.14h0s-.07-.19-.86-.47a4.79,4.79,0,0,1-.83-.26.24.24,0,0,1-.13-.3.23.23,0,0,1,.28-.15c.31.08.58.17.81.25a14.33,14.33,0,0,0,3.08.27c1.06,0,1.93-.07,2.1-.08s.15-.09.15-.12,0-.25-1-.72a4.26,4.26,0,0,1-1.65-.65.24.24,0,0,1-.06-.3.25.25,0,0,1,.29-.12c.62.22,1.15.42,1.57.62a24.29,24.29,0,0,0,4.52.36c.78,0,1.35,0,1.49,0l0,0s0-.42-2.28-1.58a.24.24,0,0,1-.11-.29.24.24,0,0,1,.27-.16,16.79,16.79,0,0,0,3.57.41c2.46,0,3.57-.71,3.59-1.08,0-.21-.38-.48-1.27-.58a6.71,6.71,0,0,1-.67,0,.24.24,0,0,1-.21-.26.24.24,0,0,1,.23-.22h0l.67,0h.08c4,0,13-2.83,15.75-4,2.05-.69,3.93-3.05,3.81-3.78,0-.06,0-.18-.34-.18h-.09c-3,2-13.84,4.24-17.42,4.85l-1.5.47c-2.93.93-7.37,2.34-8.69,2.34h-.16c-2.19-.15-4.24-.22-6.07-.22C377.28,183.8,375,184.42,374.21,184.69Z"/><path class="cls-8" d="M378.56,208.48l.44,7.19a5,5,0,0,1-.44.58c-.2.22-5.56-.77-4.82,3,0,1.54,0,1.94,1.17,2.8a4.45,4.45,0,0,1-.2-1.72s1.51.83,3-1.45c-1,2.25-.3,3-.07,3.11.24.4-.4,2.21,1.61,2.18a1.57,1.57,0,0,1-.4-1.66s2.11-.31,1.37-3.81c.77-.71,1.08,0,1.08,0s.23,2.09,2.07,1.66c.84.43-.13,1.57-.13,1.57a1.88,1.88,0,0,0,1.74-1c.4-1,.87-2.92-1.34-3.69-.27-.73.87-.8.87-.8a4,4,0,0,1,1.81,1.08c.4.65.27-1.69-1.47-1.94-2.15-.06-2.28-.46-2.28-.55s-.37-5.22-.54-6.7Z"/><path d="M379.18,224.39c-1.69,0-1.71-1.24-1.73-1.9a1.89,1.89,0,0,0,0-.35.87.87,0,0,1-.33-.41A2.5,2.5,0,0,1,377,220a2.32,2.32,0,0,1-2.11.63,4.69,4.69,0,0,0,.2,1.28.36.36,0,0,1,0,.11.25.25,0,0,1-.24.24.27.27,0,0,1-.14-.05c-1.21-.91-1.27-1.41-1.27-3a2.48,2.48,0,0,1,.4-2.12c.81-1,2.44-1.1,3.59-1.1h.94a3.92,3.92,0,0,0,.32-.44l-.43-7.11a.25.25,0,0,1,.23-.25L382,208a.25.25,0,0,1,.25.21c.16,1.41.51,6.2.54,6.69,0,.06.39.31,2,.36h0a2.29,2.29,0,0,1,1.87,2.16c0,.34-.26.36-.31.36a.41.41,0,0,1-.32-.22,3.57,3.57,0,0,0-1.63-1,.93.93,0,0,0-.62.24.19.19,0,0,0,0,.13,2.58,2.58,0,0,1,1.51,1.28,3.4,3.4,0,0,1-.15,2.68,2.09,2.09,0,0,1-1.95,1.16A.25.25,0,0,1,383,222a.24.24,0,0,1,0-.26c.12-.15.47-.64.41-1a.32.32,0,0,0-.14-.2,2.18,2.18,0,0,1-.43.05c-1.26,0-1.74-1.21-1.84-1.89a.23.23,0,0,0-.2-.12.72.72,0,0,0-.38.17,4,4,0,0,1-.36,3.12,2,2,0,0,1-1.08.8,1.27,1.27,0,0,0,.37,1.28.23.23,0,0,1,.06.26.24.24,0,0,1-.22.16Zm-1.49-5.76.11,0a.25.25,0,0,1,.11.31,4.17,4.17,0,0,0-.49,2.19.8.8,0,0,0,.27.59.22.22,0,0,1,.14.11,1.38,1.38,0,0,1,.1.63c0,.57,0,1.2.77,1.38a1.85,1.85,0,0,1-.09-1.45.26.26,0,0,1,.19-.16,1.51,1.51,0,0,0,.92-.64,3.82,3.82,0,0,0,.25-2.88.25.25,0,0,1,.07-.23,1.25,1.25,0,0,1,.8-.38.73.73,0,0,1,.65.43.19.19,0,0,1,0,.07c0,.06.19,1.51,1.37,1.51a2.18,2.18,0,0,0,.42,0,.18.18,0,0,1,.16,0,.8.8,0,0,1,.46.57,1.45,1.45,0,0,1-.21.91,1.4,1.4,0,0,0,1-.8,3,3,0,0,0,.15-2.31,2.13,2.13,0,0,0-1.35-1.07.26.26,0,0,1-.14-.15.69.69,0,0,1,.05-.65,1.42,1.42,0,0,1,1-.46h.08a4.91,4.91,0,0,1,1.6.8,2,2,0,0,0-.23-.47,1.65,1.65,0,0,0-1.12-.73c-1.68-.05-2.5-.31-2.5-.79,0-.16-.34-4.76-.51-6.45l-3,.19.42,7a.27.27,0,0,1,0,.15,5.39,5.39,0,0,1-.46.61c-.13.14-.34.12-.8.11h-.45c-1.06,0-2.54.09-3.22.92a2,2,0,0,0-.3,1.75v0c0,1.19,0,1.64.55,2.16a4.14,4.14,0,0,1,0-1.11.23.23,0,0,1,.13-.18.22.22,0,0,1,.22,0,1.36,1.36,0,0,0,.58.12c.51,0,1.3-.26,2.09-1.49A.23.23,0,0,1,377.69,218.63Z"/><path class="cls-8" d="M386,214.6c0-.33-3.66-4.88-2.72-5.46.93.17,2.46,2.24,3.7,1.57-.37-.81-1.48-.35-2.74-2.42-1.26-2.33-1.44-5.84-5.85-9.66,2.85,4.05,9.33,6.42,9.6,5.24s-5.7-5.64-5.39-6.72c1.18,2.21,7.19,7.13,11.61,6.72.3-1-3.62-2.86-4.63-4.64-2.83-1.74-10.39-7.72-10.54-9.11-2.75-3.68-4.47-4.79-5.27-5.21a2,2,0,0,1-.44-.86c-1.71-3.69.55-4.89,1.88-5.07a5.78,5.78,0,0,0,2.18-.31l-2.78-1c1.21.81,4.3.09,3.63,2.44,1.36-.47,4.24-3.62-3.27-4.33-2.44-2.57-12.49-4.05-15,7.17a8.4,8.4,0,0,0,.95.72c-3.18-1.41-11.73-2.49-14.82-2.95-8.33-2.2-17-7.52-17.81-6.86-1.12.45,5,5.69,4.71,5.81A148.34,148.34,0,0,0,318.29,173c-3.18-1.09-6.37-3.63-6.73-3.15-1.17,2.23,5.11,7.83,6.28,8.49s10.36,4.54,10.22,4.59c-13.84-5.76-16.16-6.81-16.85-7.47-1.22-.26-4.2-3.94-5-3.7-.46.41.45,6.22,7.06,8.84,1.07.71,14.16,5,14,5.36,0,.08-15-5.66-15.57-5.87-2.88-1-6.42-4.67-7.08-4.26s1.63,4.3,4.55,5.54c1.52.62,7.38,3.28,12.66,5,.33.11-9.49-3.42-14.21-5.23-2.14-1.09-3.15-2.45-3.48-2.15s.78,6.1,16,9.38c.4.16,5.34-1.07,5.1-.91-.07,0-4.91,1-5.38,1a14,14,0,0,0-3.13.42c-.16.39,1,2.47,8.8,2,1-.06,6.44-1.82,6-1.44-.23.19-7.4,2.33-8,2.37s-3,.3-3.08.55,1.86,1.82,6.07,2c3.72.18,10.8-2.08,10.66-1.94s-6.82,2.25-7,2.38-2.69.24-2.77.42c-.2.43,3.53,3.62,14.55.21-1.1,1.37-6.45,2.31-6.44,2.56a5,5,0,0,0,3.05,1.63,10.66,10.66,0,0,0,3.38,0,14.34,14.34,0,0,0,7.12-3.53c.34.75-7,4.16-6.68,4.49,1.6,1.35,6.9-.18,7.25-.36s10.2-5.27,10.17-5.86c.15.75-12.71,7.16-12.57,7.43.82,1.2,5.22-.07,5.43-.18l5.75-2.86c.15-.08-6.34,3.48-5.76,4-.28,2.32,10.13-1.59,10.95-2.08.41-.24-5,2.18-5,3.34,1.74,2.7,7.32,1.84,8.18,1.25.44-.3-.5,2-.2,1.8a9.15,9.15,0,0,0,1.64-2.12c-.14.75-.75,1.94-1.1,3.31s-.46,2.9-.95,4.54c-.12.72,3.43-1.4,2.92-6.48.3,2.64-1.12,7.58-.75,7.83.75.52,2.81-2.46,3-4.47.61,1,1.89,3.14,3,3.63a8.06,8.06,0,0,0-.48-3,74.75,74.75,0,0,0,.4-7.91c3,5.28,4.2,7.51,3.36,11.55.9.34,2.33-2.82,2.21-4.45A7,7,0,0,0,386,214.6Z"/><path d="M385.93,214.86a7.6,7.6,0,0,1-5.95-4.19,7.23,7.23,0,0,1-1.43,3.15,1,1,0,0,1-1,.39.26.26,0,0,1-.15-.28c.76-3.66-.14-5.73-2.91-10.63a68.07,68.07,0,0,1-.37,7,5.87,5.87,0,0,1,.41,2.1c0,.22,0,.48.05.83a.17.17,0,0,1,0,.07.23.23,0,0,1-.24.23.13.13,0,0,1-.1,0c-1-.44-2.09-2.06-2.78-3.18-.46,1.84-2,4.11-2.94,4.11a.57.57,0,0,1-.34-.1c-.26-.18-.21-.61.13-2.57,0-.2.08-.42.11-.64-.73,1.34-1.71,2-2.16,2a.39.39,0,0,1-.28-.11.42.42,0,0,1-.07-.3,0,0,0,0,1,0,0,23.25,23.25,0,0,0,.57-2.64c.11-.66.22-1.29.38-1.89a15.76,15.76,0,0,1,.57-1.72,5.77,5.77,0,0,1-.75.78h0a.26.26,0,0,1-.38-.05c-.11-.14-.06-.34.12-1,.05-.17.12-.41.16-.59a9.93,9.93,0,0,1-3.28.5c-1.37,0-3.83-.26-4.94-2a.33.33,0,0,1,0-.14c0-.48.66-1.07,1.56-1.66a23.86,23.86,0,0,1-6.05,1.38,1.63,1.63,0,0,1-1.27-.38.78.78,0,0,1-.18-.52.64.64,0,0,1,0-.2c0-.25.44-.66,1.22-1.23l-.82.41a14.16,14.16,0,0,1-3.92.72,2.11,2.11,0,0,1-1.82-.62v0c-.11-.21-.15-.28,1.15-1a16.55,16.55,0,0,1-3.57.48,3.72,3.72,0,0,1-2.37-.61.3.3,0,0,1-.09-.25c0-.19.23-.38,1.25-1a14,14,0,0,1-1.41.32,13.55,13.55,0,0,1-2,.15,7.52,7.52,0,0,1-1.51-.13c-1.71-.35-3.21-1.38-3.24-1.85h0c0-.27.2-.33,1.54-.69a26.86,26.86,0,0,0,3.72-1.22,28.45,28.45,0,0,1-7.43,1.14c-3.92,0-5.56-1.23-5.86-1.71a.39.39,0,0,1-.06-.4c.1-.2.31-.24,1.76-.39.43-.05,1-.11,1.13-.15h0c.12-.06.51-.2,1.74-.6a23.13,23.13,0,0,1-5.31.62c-3.82-.21-5.84-1.43-6.21-2a.43.43,0,0,1-.08-.38c.09-.24.41-.38,2.94-.66l.34-.05a17.31,17.31,0,0,0,1.72-.44c-.61,0-1.2.05-1.75.05-5.1,0-6.49-1.25-6.85-1.78a.73.73,0,0,1-.14-.65c0-.13.08-.21,1.45-.4l.68-.09c-4.92-1.18-8.75-2.75-11.41-4.66-2.22-1.6-3.18-3.18-3.34-4.12-.07-.43,0-.61.15-.69a.38.38,0,0,1,.25-.09c.27,0,.55.22,1.07.63a14.35,14.35,0,0,0,2.4,1.59l.28.1c-2.08-1.37-3.65-3.85-3.72-4.85a.54.54,0,0,1,.22-.53.51.51,0,0,1,.25-.06c.46,0,1.18.52,2.52,1.51.68.51,1.44,1.08,2.21,1.58a10.22,10.22,0,0,1-3.57-5.73c-.09-.49-.14-1.12.11-1.34l.09,0c.52-.15,1.34.57,2.69,1.81a9,9,0,0,0,2.45,1.88.24.24,0,0,1,.11.06c.42.41,1.6,1,5.62,2.74-2-1.62-6.75-6.17-5.64-8.28l0,0a.41.41,0,0,1,.34-.16,6.69,6.69,0,0,1,2.21,1,26.72,26.72,0,0,0,4.45,2.19c4.45,1.8,8.84,3.63,13.66,6.13l-.59-.58c-2.47-2.43-3.62-3.7-3.5-4.33a.44.44,0,0,1,.25-.31.59.59,0,0,1,.34-.09c.7,0,2.36.77,4.87,1.93a81.82,81.82,0,0,0,12.77,5l1.32.19A93.79,93.79,0,0,1,359.76,183a.14.14,0,0,1,0-.09c1.85-8.29,7.53-9.18,9.88-9.18a8.16,8.16,0,0,1,5.46,1.83c3.22.32,4.93,1.11,5.08,2.37s-1.11,2.16-1.84,2.41a.23.23,0,0,1-.24-.05.24.24,0,0,1-.07-.24,1.18,1.18,0,0,0,0-1,.88.88,0,0,0-.37-.31.2.2,0,0,1-.12.12,3.31,3.31,0,0,1-1.41.28c-.23,0-.5,0-.85.05a2.71,2.71,0,0,0-2,1.26c-.47.85-.37,2,.3,3.47l0,0V184a1.59,1.59,0,0,0,.35.69,18.49,18.49,0,0,1,5.31,5.26.31.31,0,0,1,.05.12c.12,1.15,7.24,7,10.42,8.92a.32.32,0,0,1,.08.09,10.52,10.52,0,0,0,2.63,2.47c1.3,1,2.23,1.71,2,2.36a.23.23,0,0,1-.21.17,5,5,0,0,1-.55,0c-2.34,0-5.1-1.35-7.34-2.95,1.29,1.3,2,2.18,1.88,2.74-.05.22-.24.49-.88.49a12.5,12.5,0,0,1-5.61-2.31,19.3,19.3,0,0,1,1.85,4,16.92,16.92,0,0,0,.87,2.08,3.79,3.79,0,0,0,1.88,1.72,1.52,1.52,0,0,1,.87.71.24.24,0,0,1-.1.31,1.33,1.33,0,0,1-.65.16,4,4,0,0,1-2.1-1,4.71,4.71,0,0,0-1-.64c-.12.64,1.3,2.71,2.06,3.83s.82,1.21.81,1.38a.36.36,0,0,1,0,.11A.3.3,0,0,1,385.93,214.86Zm-6.09-5.57a.25.25,0,0,1,.23.18,6.88,6.88,0,0,0,5.55,4.88c-.14-.23-.36-.55-.56-.84-1.26-1.85-2.3-3.45-2.14-4.21a.58.58,0,0,1,.25-.37.25.25,0,0,1,.17,0,3.76,3.76,0,0,1,1.31.77,3.71,3.71,0,0,0,1.82.94l.15,0a2.39,2.39,0,0,0-.47-.26,4.29,4.29,0,0,1-2.09-1.91,17.09,17.09,0,0,1-.91-2.16,17.07,17.07,0,0,0-2.61-5,12.91,12.91,0,0,1-2.33-2.44.25.25,0,0,1,0-.32.23.23,0,0,1,.31,0,17.59,17.59,0,0,1,2.33,2.42c2.47,2,5.34,3.06,6.47,3.06.27,0,.41-.06.42-.12.11-.46-1.51-2.06-2.7-3.22-1.79-1.76-2.87-2.87-2.69-3.5a.22.22,0,0,1,.2-.18.24.24,0,0,1,.24.13c1.18,2.21,6.72,6.62,10.87,6.62H394a7.92,7.92,0,0,0-1.85-1.69,11.43,11.43,0,0,1-2.72-2.56c-2.55-1.59-10.2-7.48-10.58-9.18-2-2.61-3.69-4.33-5.16-5.1l-.06-.05a2,2,0,0,1-.49-.91v0c-.73-1.59-.82-2.9-.28-3.89a3.18,3.18,0,0,1,2.35-1.5c.38,0,.65-.05.9-.06a4.73,4.73,0,0,0,.56,0l-.7-.25-.32-.11a3.09,3.09,0,0,1-1.13-.41.22.22,0,0,1-.08-.3.23.23,0,0,1,.29-.12l1,.37.55.09c.84.14,1.72.29,2.1.9a1.37,1.37,0,0,1,.19.89,2.09,2.09,0,0,0,1.12-1.71c-.07-.57-.78-1.59-4.74-2a.28.28,0,0,1-.15-.08,7.62,7.62,0,0,0-5.18-1.74c-2.22,0-7.57.84-9.38,8.66l0,0a8.65,8.65,0,0,0,.77.58.24.24,0,0,1,.07.31.23.23,0,0,1-.3.1c-2.76-1.23-9.69-2.21-13.42-2.74l-1.33-.19h0a80.85,80.85,0,0,1-12.86-5,22.39,22.39,0,0,0-4.67-1.88h-.08l0,0c0,.52,2.34,2.87,3.36,3.88,1.42,1.4,1.54,1.55,1.5,1.76a.28.28,0,0,1-.17.18.21.21,0,0,1-.19,0,147,147,0,0,0-14.71-6.7,27.17,27.17,0,0,1-4.52-2.22,9.23,9.23,0,0,0-1.94-1c-.87,2,5,7.42,6.22,8.1.58.32,3.33,1.52,5.75,2.58,2.91,1.27,4,1.74,4.37,2l.08,0h0c.16.1.16.15.15.21a.23.23,0,0,1-.15.22.28.28,0,0,1-.18,0c-13.37-5.57-16.08-6.76-16.88-7.48a9.07,9.07,0,0,1-2.6-2,9.15,9.15,0,0,0-2.15-1.69,4.64,4.64,0,0,0,.35,1.92,11.05,11.05,0,0,0,6.65,6.45l0,0a7.75,7.75,0,0,0,1,.46l1.63.63,4.41,1.59c6.08,2.16,6.92,2.51,7,2.76a.28.28,0,0,1,0,.2.25.25,0,0,1-.22.16c-.13,0-1-.31-11.4-4.27l-1.64-.62c-1.29-.5-2.46-.94-2.61-1a20.68,20.68,0,0,1-4.64-2.86,8.2,8.2,0,0,0-2.22-1.42,1.1,1.1,0,0,0,.11.52,9.33,9.33,0,0,0,4.39,4.59c.31.12.8.34,1.43.6,1.28.55,3.21,1.38,5.33,2.23l4.52,1.64,1,.36.31.12h0c.18.07.19.13.17.26a.24.24,0,0,1-.24.2l-.08,0c-1.72-.55-3.71-1.27-5.9-2.14-3.72-1.36-6.51-2.39-8.32-3.08h0a15,15,0,0,1-2.49-1.65,4.78,4.78,0,0,0-.72-.51,2.13,2.13,0,0,0,.32,1c.8,1.54,3.92,5.41,15.53,7.92h0s0,0,0,0h.15l1.54-.27,1.64-.34a14.12,14.12,0,0,1,1.63-.32.24.24,0,0,1,.25.17.27.27,0,0,1-.1.28c-.14.09-3.3.67-3.33.68-.76.15-1.27.24-1.58.27a3.42,3.42,0,0,1-.58.06h-.16a19.14,19.14,0,0,0-2.75.34,1.37,1.37,0,0,0,.17.26c.39.43,1.78,1.44,6.36,1.44.63,0,1.31,0,2-.06a32.2,32.2,0,0,0,3.37-.84,20.25,20.25,0,0,1,2.6-.65.26.26,0,0,1,.27.17.25.25,0,0,1-.1.3c-.35.29-7.67,2.4-8.08,2.43l-.34,0a19.2,19.2,0,0,0-2.47.37c.37.42,2.2,1.51,5.79,1.72H327c2.86,0,7.32-1.21,9.22-1.72a7,7,0,0,1,1-.24.26.26,0,0,1,.23.14.25.25,0,0,1,0,.27c-.09.09-.3.18-4,1.4-1.34.44-2.84.93-3,1h0a5.2,5.2,0,0,1-1.29.19c-.42,0-1,.1-1.29.16.38.43,2,1.39,5.4,1.39a30.24,30.24,0,0,0,8.78-1.55.24.24,0,0,1,.27.1.23.23,0,0,1,0,.28c-.8,1-3.45,1.71-5.21,2.19-.41.11-.83.22-1.07.31a5.94,5.94,0,0,0,2.74,1.3,7.38,7.38,0,0,0,1.42.12,12.35,12.35,0,0,0,1.88-.14,14,14,0,0,0,7-3.47.24.24,0,0,1,.37.08c.24.54-.79,1.22-4.21,3.14-.9.5-2,1.11-2.36,1.39a3.7,3.7,0,0,0,1.89.37,17.75,17.75,0,0,0,4.92-.88c3.31-1.7,9.61-5.09,10-5.7a.23.23,0,0,1,.21-.19.25.25,0,0,1,.26.19s0,0,0,.06a.22.22,0,0,1-.05.17c-.3.54-2.05,1.61-8.45,5.06-1.68.91-3.42,1.85-4,2.2a2.36,2.36,0,0,0,1.28.27,13.91,13.91,0,0,0,3.7-.67l3.12-1.56,2.63-1.3a.24.24,0,0,1,.34.15.23.23,0,0,1-.12.27h0l0,0c-3.64,2-5.44,3.31-5.63,3.69a.2.2,0,0,1,0,.13.34.34,0,0,0,.06.25c.07.08.29.21.91.21,2.28,0,7.06-1.71,8.71-2.37.93-.45,1-.45,1.06-.45a.24.24,0,0,1,.23.17.25.25,0,0,1-.13.29,9.47,9.47,0,0,1-1,.43c-2.55,1.24-3.79,2.22-3.91,2.64,1,1.46,3.24,1.68,4.49,1.68a7.85,7.85,0,0,0,3.31-.57.3.3,0,0,1,.42,0c.13.17.07.46-.15,1.22v.06a8.52,8.52,0,0,0,1.1-1.55.24.24,0,0,1,.28-.12.23.23,0,0,1,.16.27,9.25,9.25,0,0,1-.46,1.44,16.06,16.06,0,0,0-.64,1.89c-.16.58-.26,1.2-.37,1.85a24.26,24.26,0,0,1-.52,2.47,5.72,5.72,0,0,0,2.36-4.17,11.12,11.12,0,0,0,.06-1.77l0-.36a.24.24,0,0,1,.21-.26.24.24,0,0,1,.26.21c0,.12,0,.25,0,.38a8.91,8.91,0,0,1-.07,1.87c-.1,1.12-.32,2.34-.49,3.33a13,13,0,0,0-.28,2.1h0c.65,0,2.39-2.5,2.58-4.31a.24.24,0,0,1,.19-.21.23.23,0,0,1,.25.11,13.58,13.58,0,0,0,2.53,3.31c0-.17,0-.31,0-.44a5.93,5.93,0,0,0-.41-2,.22.22,0,0,1,0-.11,67,67,0,0,0,.38-7.17v-.72a.26.26,0,0,1,.18-.22.24.24,0,0,1,.27.11c2.85,5,4.2,7.38,3.45,11.41a1.29,1.29,0,0,0,.28-.23,6.78,6.78,0,0,0,1.39-3.94.24.24,0,0,1,.2-.25Z"/><path class="cls-8" d="M336,181.08a8.47,8.47,0,0,1-4.59,1.34c.63,2.33,5.91.54,5.91.54s-2.55,2.58-4.37,3c1.09.83,5.68.54,6.46.13a12.06,12.06,0,0,0,2.13-2.05s-4.72,5-5.41,5c-.09.59,5,.38,6-.5a26.16,26.16,0,0,1,3.69-2.16s-6.91,4.41-7.23,4.41c2.59.63,7.77-.75,11.09-2.62-4.91,3-5.36,3.54-7.86,4.54,2.22.46,3.36,1.84,10.9-1.16a17.93,17.93,0,0,0,6.78-5.3c-2.69,3.29-6.91,6.09-11.59,8.84-.28.5,5,2.54,11.72-3.88"/><path d="M350.3,196a4.52,4.52,0,0,1-2.45-.54c-.31-.23-.22-.45-.18-.52a.38.38,0,0,1,.09-.09c1.67-1,3.35-2,4.94-3.08-6.31,2.5-8.15,2-9.94,1.42-.34-.1-.67-.2-1-.27a.24.24,0,0,1-.19-.22.24.24,0,0,1,.15-.24,22.67,22.67,0,0,0,4.41-2.39l.38-.24c-2.85,1-6.05,1.63-8,1.17a.25.25,0,0,1-.18-.26.23.23,0,0,1,.2-.21c.18-.06,1-.56,2.11-1.23-1.68.35-4,.37-4.54.06a.37.37,0,0,1-.22-.38.24.24,0,0,1,.25-.2,14.16,14.16,0,0,0,2.64-2.27c-1.59.3-5,.41-6-.35a.23.23,0,0,1-.09-.24.24.24,0,0,1,.18-.18,10.13,10.13,0,0,0,3.53-2.27c-1.2.31-3.24.68-4.41.06a1.64,1.64,0,0,1-.84-1,.23.23,0,0,1,0-.21.22.22,0,0,1,.19-.09,8.3,8.3,0,0,0,4.45-1.29.24.24,0,0,1,.27.39,8.67,8.67,0,0,1-4.37,1.38,1.24,1.24,0,0,0,.49.44c1.51.8,4.95-.35,5-.37a.24.24,0,0,1,.25.4,15.35,15.35,0,0,1-3.9,2.87,12.79,12.79,0,0,0,5.7-.12,3.6,3.6,0,0,0,.47-.34c.54-.54,1.08-1.1,1.61-1.66a.25.25,0,0,1,.33,0,.25.25,0,0,1,0,.34,17.6,17.6,0,0,1-1.6,1.65,28.18,28.18,0,0,1-3.5,3.17c1.07.19,4.51,0,5.35-.7a26.71,26.71,0,0,1,3.73-2.2.24.24,0,0,1,.23.42c-3.31,2.12-5.52,3.49-6.6,4.09,2.56.24,7.07-.93,10.22-2.71a.24.24,0,0,1,.32.09.23.23,0,0,1-.08.32c-1.48.91-2.55,1.59-3.41,2.13a24.42,24.42,0,0,1-3.82,2.16l.36.1c1.71.51,3.48,1,9.71-1.44a16.61,16.61,0,0,0,3.76-2.29,23,23,0,0,0,2.91-2.93.24.24,0,0,1,.33,0,.25.25,0,0,1,.05.33,17.26,17.26,0,0,1-3.13,3.13,61.28,61.28,0,0,1-8.32,5.65,3.48,3.48,0,0,0,1.27.35c1.42.16,5.22,0,10-4.48a.24.24,0,0,1,.33.34C355.82,195.11,352.46,196,350.3,196Z"/><path class="cls-8" d="M372.51,195a7.08,7.08,0,0,0,2.27,3.46,4.91,4.91,0,0,1,2,3"/><path d="M376.74,201.67a.25.25,0,0,1-.24-.22,4.75,4.75,0,0,0-1.87-2.8,7.18,7.18,0,0,1-2.35-3.59.23.23,0,0,1,.18-.28.22.22,0,0,1,.28.17,6.91,6.91,0,0,0,2.2,3.33,5.16,5.16,0,0,1,2,3.12.24.24,0,0,1-.22.26Z"/><path class="cls-8" d="M371.6,182.25a6.26,6.26,0,0,0,2.5,2.88,19.64,19.64,0,0,1,5,5.29,57.94,57.94,0,0,1,1.23,6.8"/><path d="M380.33,197.45h0a.24.24,0,0,1-.2-.27,59,59,0,0,0-1.22-6.69,19.9,19.9,0,0,0-4.89-5.16,6.44,6.44,0,0,1-2.6-3,.23.23,0,0,1,.14-.3.24.24,0,0,1,.31.14,5.91,5.91,0,0,0,2.4,2.75,20.29,20.29,0,0,1,5.1,5.42,55.32,55.32,0,0,1,1.23,6.91A.23.23,0,0,1,380.33,197.45Z"/><path class="cls-8" d="M360,185c.14.67-2.68,4,1.18,8-3.5,3.92-3.5,4.42-3.5,4.42s2,1,5.46-1.75c5.77,6.51,3.85,9.48,3.85,9.48"/><path d="M367,205.35a.2.2,0,0,1-.13,0,.24.24,0,0,1-.07-.33s1.69-2.88-3.68-9c-3.47,2.64-5.45,1.68-5.53,1.64a.26.26,0,0,1-.13-.22c0-.36,1.24-2,3.41-4.41a6.21,6.21,0,0,1-1.3-7.32,2.81,2.81,0,0,0,.21-.64.24.24,0,0,1,.47-.1,2,2,0,0,1-.24.92c-.55,1.38-1.58,4,1.35,7a.23.23,0,0,1,0,.32,33,33,0,0,0-3.35,4.12c.58.15,2.31.3,5-1.79a.25.25,0,0,1,.33,0c5.82,6.57,3.95,9.64,3.87,9.77A.26.26,0,0,1,367,205.35Z"/><path class="cls-8" d="M366.54,200.52s-.53-.7.41-3.31a11,11,0,0,0,2.22,1.53c.42.38,4.78,1,5.05,3.63"/><path d="M374.22,202.61a.23.23,0,0,1-.23-.21c-.2-1.89-2.69-2.68-4-3.1a3.21,3.21,0,0,1-.94-.38,2.92,2.92,0,0,0-.59-.36,6.08,6.08,0,0,1-1.37-.91c-.7,2.1-.32,2.73-.32,2.73a.24.24,0,0,1-.06.33.22.22,0,0,1-.32-.05c-.06-.08-.58-.87.38-3.53a.25.25,0,0,1,.18-.15.23.23,0,0,1,.22.07,4.92,4.92,0,0,0,1.51,1.09,2.92,2.92,0,0,1,.69.42,4.13,4.13,0,0,0,.77.28c1.44.46,4.13,1.31,4.36,3.51a.24.24,0,0,1-.21.26Z"/><path class="cls-8" d="M371.66,176c0-.19-.88-1.92-4.15.24C369.26,176.37,371,177.29,371.66,176Z"/><path d="M370.43,176.93h0a8,8,0,0,1-1.44-.2,10.71,10.71,0,0,0-1.49-.22.25.25,0,0,1-.22-.18.23.23,0,0,1,.1-.26,5.55,5.55,0,0,1,2.89-1.11A1.53,1.53,0,0,1,371.9,176a.27.27,0,0,1,0,.12A1.49,1.49,0,0,1,370.43,176.93Zm-2.2-.82c.29,0,.57.1.85.15a7.27,7.27,0,0,0,1.35.19h0a1,1,0,0,0,1-.45,1.21,1.21,0,0,0-1.13-.57A4.32,4.32,0,0,0,368.23,176.11Z"/><path class="cls-8" d="M402.91,183.93c.16.08,9.78,2,13,1-4.09,5-12.27,1.62-12.27,1.62,4,1.1,4.17,1,5.45,2.06.4,1-7.37.51-9.94-.81,7.14,2.06,7.3,1.91,7.54,2.72.32,1.1-11.71-.29-12.75-1.76,3.21,2.28,5,2.72,6.73,3.75-2.16.88-6.17,1.76-13.55-3,9.7,8.09,18.44,7.58,19.81,9-3.37,4.56-16.44-2.72-22.45-6.4s13.15,8.9,14.91,8.68c-.88,1.25-7.22.14-7.62-.44"/><path d="M397.1,201.66H397c-2,0-5.08-.58-5.44-1.12a.23.23,0,0,1,.06-.33.24.24,0,0,1,.33.06,14.35,14.35,0,0,0,5.66.9,3.89,3.89,0,0,0,1.17-.2,56.59,56.59,0,0,1-8.11-4.44c-2-1.25-7.47-4.66-7.59-4.93a.23.23,0,0,1,.06-.28c.15-.14.15-.14,1.44.65,5.5,3.36,18.53,10.65,22,6.63a10.68,10.68,0,0,0-2.9-.9,37.65,37.65,0,0,1-16.73-8,.23.23,0,0,1,0-.32.24.24,0,0,1,.32-.06c6.69,4.34,10.52,4,12.86,3.18-.44-.24-.9-.46-1.38-.68a29.41,29.41,0,0,1-4.34-2.43,1.78,1.78,0,0,1-.65-.47.24.24,0,0,1,.34-.33l.64.45a30.18,30.18,0,0,0,7.74,1.53c2.51.24,3.72.13,4,0-.14-.44-.29-.5-3.77-1.48l-.39-.11A12.31,12.31,0,0,1,399,188a.23.23,0,0,1-.11-.3.24.24,0,0,1,.29-.14l3.26.93c2.67.44,5.74.48,6.33.19a5.21,5.21,0,0,0-2.12-1.06,17.14,17.14,0,0,1-3.14-.86.24.24,0,0,1,.15-.45l1.53.42c.66.18,1.18.31,1.6.44,2.51.44,6,.49,8.4-1.86-3.78.57-12.14-1.08-12.41-1.2a.25.25,0,0,1-.12-.32.25.25,0,0,1,.3-.12c.45.13,9.8,1.93,12.84,1a.24.24,0,0,1,.25.38c-2,2.49-5.05,2.95-7.62,2.78a8.53,8.53,0,0,1,.77.56.23.23,0,0,1,.07.1.39.39,0,0,1-.11.46c-.38.36-2.05.44-4,.31,1.4.44,1.52.62,1.69,1.16a.42.42,0,0,1-.27.5c-1.09.53-6.85,0-10.33-.93,1,.58,1.84,1,2.62,1.34s1.25.59,1.85.94a.23.23,0,0,1,.12.22.25.25,0,0,1-.15.21c-2,.82-5.16,1.47-10.46-1.14a38.05,38.05,0,0,0,13.51,5.61c1.7.4,2.82.67,3.29,1.18a.23.23,0,0,1,0,.3,4.4,4.4,0,0,1-3.75,1.54c-3.44,0-8.29-2-12.73-4.31,3.89,2.37,8.05,4.75,8.72,4.67a.25.25,0,0,1,.24.11.27.27,0,0,1,0,.26C399.26,201.43,398.43,201.66,397.1,201.66Z"/><path class="cls-8" d="M405.39,192.39a37,37,0,0,1-5,.07"/><path d="M402.18,192.75c-.86,0-1.59,0-1.79-.05a.24.24,0,1,1,.07-.47,37.88,37.88,0,0,0,4.9-.08.25.25,0,0,1,.27.21.24.24,0,0,1-.2.27C404.75,192.71,403.34,192.75,402.18,192.75Z"/><path class="cls-8" d="M333.15,179.75s7.32,3.54,10.41,3.29a5.55,5.55,0,0,1-2.05,1,9.85,9.85,0,0,0,6.14.67c-.77.71-1.77,1.5-1.77,1.5a8.38,8.38,0,0,0,5.91-.54,22.46,22.46,0,0,0-1.51,1.87l2.19.13"/><path d="M352.47,187.91h0l-2.18-.13a.23.23,0,0,1-.18-.37s.32-.47.88-1.15a8.46,8.46,0,0,1-5.17.18.26.26,0,0,1-.16-.19.25.25,0,0,1,.09-.23s.55-.43,1.14-.94a10,10,0,0,1-5.21-.72l-.23-.09a.26.26,0,0,1-.16-.24.26.26,0,0,1,.19-.22,6.19,6.19,0,0,0,1.34-.53c-3.38-.25-9.48-3.18-9.75-3.32a.23.23,0,0,1-.11-.31.24.24,0,0,1,.31-.12c.08,0,7.3,3.51,10.29,3.27a.25.25,0,0,1,.24.15.24.24,0,0,1-.07.27,5,5,0,0,1-1.49.85,9.36,9.36,0,0,0,5.38.41.23.23,0,0,1,.26.12.24.24,0,0,1-.05.29c-.48.44-1.05.91-1.42,1.21a8.36,8.36,0,0,0,5.29-.65.23.23,0,0,1,.29.07.24.24,0,0,1,0,.31c-.56.63-1,1.17-1.23,1.5l1.75.1a.24.24,0,0,1,.22.25A.23.23,0,0,1,352.47,187.91Z"/></g></svg>